<svg xmlns="http://www.w3.org/2000/svg" viewBox="0 0 512 512" role="img" aria-label="Quantum Flow"><defs><linearGradient id="bg" x1="0" y1="0" x2="1" y2="1"><stop stop-color="#6d28d9"/><stop offset="1" stop-color="#087f9d"/></linearGradient><linearGradient id="screen" x1="0" y1="0" x2="1" y2="1"><stop stop-color="#151f35"/><stop offset="1" stop-color="#0b1020"/></linearGradient></defs><rect width="512" height="512" rx="116" fill="#f5f7fb"/><circle cx="256" cy="256" r="196" fill="url(#bg)" opacity=".16"/><ellipse cx="256" cy="256" rx="188" ry="92" fill="none" stroke="#6d28d9" stroke-width="12" opacity=".72" transform="rotate(-28 256 256)"/><ellipse cx="256" cy="256" rx="188" ry="92" fill="none" stroke="#087f9d" stroke-width="12" opacity=".72" transform="rotate(28 256 256)"/><circle cx="408" cy="169" r="15" fill="#22d3ee"/><rect x="132" y="126" width="248" height="244" rx="62" fill="#fff" stroke="#172033" stroke-width="10"/><rect x="162" y="158" width="188" height="158" rx="38" fill="url(#screen)"/><circle cx="218" cy="221" r="24" fill="#fff"/><circle cx="294" cy="221" r="24" fill="#fff"/><path d="M220 263c20 28 52 28 72 0" fill="none" stroke="#fff" stroke-width="12" stroke-linecap="round"/><ellipse cx="192" cy="268" rx="14" ry="7" fill="#22d3ee"/><ellipse cx="320" cy="268" rx="14" ry="7" fill="#22d3ee"/><rect x="99" y="207" width="24" height="72" rx="12" fill="#fff" stroke="#172033" stroke-width="8"/><rect x="389" y="207" width="24" height="72" rx="12" fill="#fff" stroke="#172033" stroke-width="8"/><rect x="210" y="91" width="92" height="28" rx="14" fill="#fff" stroke="#172033" stroke-width="8"/><circle cx="256" cy="76" r="14" fill="#22d3ee"/></svg>